<?xml version="1.0" standalone="no"?>
<!DOCTYPE svg PUBLIC "-//W3C//DTD SVG 20010904//EN"
 "http://www.w3.org/TR/2001/REC-SVG-20010904/DTD/svg10.dtd">
<svg version="1.0" xmlns="http://www.w3.org/2000/svg"
 width="1024.000000pt" height="1024.000000pt" viewBox="0 0 1024.000000 1024.000000"
 preserveAspectRatio="xMidYMid meet">

<g transform="translate(0.000000,1024.000000) scale(0.100000,-0.100000)"
fill="#000000" stroke="none">
<path d="M2885 9489 c-1964 -5 -2246 -8 -2286 -21 -126 -42 -254 -184 -304
-338 -37 -113 -14 -260 60 -385 44 -75 91 -118 191 -175 l79 -45 3995 -3
c2197 -2 4259 1 4581 6 l586 9 61 33 c101 54 175 129 223 225 37 74 42 94 46
172 3 51 1 112 -6 143 -29 136 -133 270 -255 330 l-64 32 -253 9 c-325 11
-3771 16 -6654 8z"/>
<path d="M5470 8090 c-331 -9 -399 -19 -510 -75 -226 -114 -456 -359 -540
-576 -47 -124 -60 -223 -71 -579 -14 -418 -6 -2793 10 -3005 30 -395 72 -517
243 -700 145 -155 379 -299 538 -330 160 -31 497 -37 2040 -32 l1515 4 100 22
c344 77 612 282 751 574 49 103 72 207 84 375 13 184 13 2310 0 2962 -10 494
-20 632 -51 715 -89 238 -426 551 -657 610 -31 8 -113 20 -182 26 -149 13
-2881 21 -3270 9z m3130 -2647 l0 -1586 -1587 7 c-1016 5 -1592 11 -1598 17
-11 11 -22 1054 -24 2352 l-1 797 1605 0 1605 0 0 -1587z"/>
<path d="M932 7570 l-454 -5 -32 -36 c-127 -138 -120 -497 11 -622 l30 -28
1691 3 1690 3 25 23 c61 57 107 193 107 317 0 123 -46 260 -105 315 l-26 25
-307 6 c-346 8 -1941 7 -2630 -1z"/>
<path d="M932 5680 l-454 -5 -32 -36 c-127 -138 -120 -497 11 -622 l30 -28
1691 3 1690 3 25 23 c61 57 107 193 107 317 0 123 -46 260 -105 315 l-26 25
-307 6 c-346 8 -1941 7 -2630 -1z"/>
<path d="M932 3780 l-454 -5 -32 -36 c-127 -138 -120 -497 11 -622 l30 -28
1691 3 1690 3 25 23 c61 57 107 193 107 317 0 123 -46 260 -105 315 l-26 25
-307 6 c-346 8 -1941 7 -2630 -1z"/>
<path d="M1955 2401 l-1330 -7 -58 -26 c-69 -33 -157 -113 -208 -191 -103
-158 -108 -328 -16 -501 42 -79 106 -141 203 -196 l79 -44 4460 0 c2921 0
4505 3 4591 10 123 9 135 12 189 45 165 97 255 248 255 424 0 184 -98 350
-258 434 -61 32 -68 33 -235 42 -217 12 -5887 19 -7672 10z"/>
</g>
</svg>
