<?xml version="1.0" standalone="no"?>
<!DOCTYPE svg PUBLIC "-//W3C//DTD SVG 20010904//EN"
 "http://www.w3.org/TR/2001/REC-SVG-20010904/DTD/svg10.dtd">
<svg version="1.0" xmlns="http://www.w3.org/2000/svg"
 width="1024.000000pt" height="1024.000000pt" viewBox="0 0 1024.000000 1024.000000"
 preserveAspectRatio="xMidYMid meet">

<g transform="translate(0.000000,1024.000000) scale(0.100000,-0.100000)"
fill="#000000" stroke="none">
<path d="M1065 8801 c-672 -8 -624 -3 -741 -86 -135 -96 -204 -228 -204 -390
0 -184 98 -350 258 -434 61 -32 68 -33 235 -42 272 -14 5157 -22 7173 -11
l1832 10 56 25 c68 32 156 112 207 190 103 158 108 328 16 501 -42 79 -106
141 -201 194 l-77 44 -3977 3 c-2187 1 -4247 0 -4577 -4z"/>
<path d="M1625 7440 c-76 -4 -167 -16 -218 -28 -321 -78 -579 -283 -713 -565
-49 -103 -72 -207 -84 -375 -13 -184 -13 -2310 0 -2962 10 -494 20 -632 51
-715 89 -237 424 -550 655 -610 139 -36 317 -40 1944 -40 1858 0 1863 0 2025
83 223 113 452 359 535 573 47 124 60 223 71 579 14 418 6 2793 -10 3005 -30
395 -72 517 -243 700 -96 103 -222 196 -353 261 -136 67 -206 81 -460 94 -213
11 -2996 11 -3200 0z m3200 -1081 c11 -11 22 -1054 24 -2351 l1 -798 -1605 0
-1605 0 0 1587 0 1586 1588 -7 c1015 -5 1591 -11 1597 -17z"/>
<path d="M6408 7143 c-52 -4 -81 -30 -119 -105 -82 -160 -52 -447 56 -548 l26
-25 307 -6 c383 -9 1874 -9 2565 0 l519 6 32 36 c126 137 122 481 -7 617 l-31
32 -1650 -2 c-908 -1 -1672 -3 -1698 -5z"/>
<path d="M6408 5243 c-52 -4 -81 -30 -119 -105 -82 -160 -52 -447 56 -548 l26
-25 307 -6 c383 -9 1874 -9 2565 0 l519 6 32 36 c126 137 122 481 -7 617 l-31
32 -1650 -2 c-908 -1 -1672 -3 -1698 -5z"/>
<path d="M6408 3353 c-52 -4 -81 -30 -119 -105 -82 -160 -52 -447 56 -548 l26
-25 307 -6 c383 -9 1874 -9 2565 0 l519 6 32 36 c126 137 122 481 -7 617 l-31
32 -1650 -2 c-908 -1 -1672 -3 -1698 -5z"/>
<path d="M875 1710 l-420 -6 -62 -33 c-102 -55 -176 -130 -224 -226 -37 -74
-42 -94 -46 -172 -3 -51 -1 -112 6 -143 29 -136 133 -270 255 -330 63 -31 65
-32 287 -41 256 -10 8056 -11 8604 -1 411 8 403 6 510 103 192 176 230 415
100 634 -44 75 -91 118 -191 175 l-79 45 -4160 1 c-2288 0 -4349 -2 -4580 -6z"/>
</g>
</svg>
