<svg xmlns="http://www.w3.org/2000/svg" viewBox="0 0 1024 1024" fill="currentColor"><path d="M44.19 145.621c-3.828 1.277-10.861 5.757-15.559 9.586-27.073 22.809-20.663 66.284 12.136 81.408 8.09 3.828 26.015 4.046 461.404 4.046 287.51 0 455.677-.84 460.346-2.116 17.893-4.916 34.106-27.29 34.106-46.895 0-10.644-6.193-26.015-13.413-33.672-2.551-2.77-8.527-7.251-13.227-9.586l-8.527-4.699-455.024-.435c-353.792-.219-456.517.219-462.274 2.335zM152.035 280.557c-41.478 5.819-74.402 32.145-86.807 68.978-5.819 17.433-6.219 40.291-5.437 203.084 1.19 180.23 1.19 184.064 9.67 199.573 10.068 18.622 34.115 41.478 54.265 50.753 13.58 6.219 30.613 6.968 200.762 6.968 170.88 0 187.182-.397 200.762-6.968 24.78-11.596 48.049-36.041 56.985-59.307 7.348-20.151 7.745-29.485 7.745-196.865 0-198.779-.397-203.816-27.499-232.907-8.54-8.938-24.384-20.534-35.643-25.576-20.151-9.275-20.931-9.275-186.783-9.67-91.437-.397-176.319.397-187.975 1.926zm332.503 264.654l.794 158.093H163.707V385.528l160.077.794 159.681 1.19 1.19 157.711zM44.19 854.466c-3.828 1.277-10.861 5.757-15.559 9.586-27.073 22.809-20.663 66.284 12.136 81.408 8.09 3.828 26.015 4.046 461.404 4.046 287.51 0 455.677-.84 460.346-2.116 17.893-4.916 34.106-27.29 34.106-46.895 0-10.644-6.193-26.015-13.413-33.672-2.551-2.77-8.527-7.251-13.227-9.586l-8.527-4.699-455.024-.435c-353.792-.219-456.517.219-462.274 2.335z"/></svg>