<svg xmlns="http://www.w3.org/2000/svg" fill="currentColor" viewBox="0 0 1024 1024"><path d="M42.519 144.314c-3.842 1.281-10.9 5.777-15.615 9.62-27.169 22.891-20.737 66.52 12.18 81.698 8.12 3.842 26.107 4.06 463.052 4.06 288.536 0 457.304-.844 461.99-2.124 17.957-4.934 34.228-27.388 34.228-47.063 0-10.682-6.215-26.107-13.461-33.792-2.561-2.78-8.557-7.277-13.273-9.62l-8.557-4.715-456.649-.437c-355.057-.219-458.148.219-463.925 2.343zM311.321 279.73c-41.626 5.841-74.667 32.26-87.118 69.225-5.841 17.495-6.24 40.432-5.457 203.81 1.195 180.873 1.195 184.722 9.705 200.285 10.104 18.689 34.237 41.626 54.459 50.934 13.63 6.24 30.725 6.992 201.479 6.992 171.491 0 187.85-.399 201.479-6.992 24.869-11.637 48.22-36.169 57.189-59.519 7.375-20.223 7.773-29.59 7.773-197.57 0-199.488-.399-204.548-27.598-233.739-8.57-8.969-24.471-20.606-35.77-25.666-20.223-9.308-21.005-9.308-187.452-9.705-91.763-.399-176.949.399-188.646 1.932zm333.69 265.6l.797 158.657H323.035V385.076l160.65.797 160.252 1.195 1.195 158.275zM42.519 855.69c-3.842 1.281-10.9 5.777-15.615 9.62-27.169 22.891-20.737 66.52 12.18 81.698 8.12 3.842 26.107 4.06 463.052 4.06 288.536 0 457.304-.844 461.99-2.124 17.957-4.934 34.228-27.388 34.228-47.063 0-10.682-6.215-26.107-13.461-33.792-2.561-2.78-8.557-7.277-13.273-9.62l-8.557-4.715-456.649-.437c-355.057-.219-458.148.219-463.925 2.343z"/></svg>