<!-- Generated by IcoMoon.io -->
<svg version="1.1" xmlns="http://www.w3.org/2000/svg" width="528" height="512" viewBox="0 0 528 512">
<g id="icomoon-ignore">
</g>
<path fill="#545454" d="M-16-16c179.52 0 359.040 0 544 0 0 179.52 0 359.040 0 544-179.52 0-359.040 0-544 0 0-179.52 0-359.040 0-544z"></path>
<path fill="#fefefe" d="M168.356 201.6c97.24 0 194.48 0 294.667 0 0 86.934 0 173.869 0 263.437-97.24 0-194.48 0-294.667 0 0-86.935 0-173.869 0-263.437z"></path>
<path fill="#000" d="M122.519 159.289c36.206-0.008 72.413-0.017 108.62-0.022 0.803 0 0.803 0 1.623 0 11.639-0.001 23.28-0.002 34.919-0.005 5.707-0 11.416-0.001 17.124-0.002 0.852 0 0.852 0 1.721 0 18.421-0.002 36.841-0.006 55.261-0.011 18.925-0.005 37.85-0.008 56.775-0.009 2.671 0 5.343-0 8.014-0 0.526 0 1.051 0 1.593 0 8.473-0 16.946-0.003 25.418-0.006 8.512-0.003 17.025-0.004 25.537-0.003 5.061 0 10.122-0 15.183-0.004 3.378-0.002 6.756-0.002 10.134-0 1.926 0 3.853 0 5.779-0.001 2.073-0.002 4.147-0.001 6.219 0.001 0.601-0.001 1.202-0.002 1.82-0.004 0.83 0.001 0.83 0.001 1.676 0.003 0.711 0 0.711 0 1.437 0 1.664 0.073 3.317 0.331 4.966 0.566 0 117.020 0 234.041 0 354.607-126.661 0-253.323 0-383.822 0-0.588-206.62-0.588-206.62-0.568-263.712 0.001-5.044 0-10.089-0.001-15.133-0.002-7.673-0.004-15.345-0.002-23.017 0-0.81 0.001-1.621 0.001-2.432 0-0.397 0-0.793 0-1.203 0.001-2.695-0.001-5.39-0.001-8.085-0.001-3.191-0.001-6.383 0.001-9.576 0.001-1.597 0.001-3.195 0-4.793-0.001-0.587-0.001-1.173-0.001-1.776-0.001-0.503-0.001-1.006-0.002-1.524 0.019-5.582 0.129-11.152 0.326-16.731 0.024-0.697 0.048-1.394 0.072-2.091 0.058-1.679 0.117-3.359 0.176-5.038zM168.356 201.6c0 86.934 0 173.869 0 263.437 97.24 0 194.48 0 294.667 0 0-86.935 0-173.869 0-263.437-97.24 0-194.48 0-294.667 0z"></path>
<path fill="#fefefe" d="M-16-16c179.52 0 359.040 0 544 0 0 179.52 0 359.040 0 544-179.52 0-359.040 0-544 0 0-179.52 0-359.040 0-544zM5.659 19.763c0 157.412 0 314.825 0 477.007 38.397 0 76.795 0 116.356 0 0 2.659 0 5.319 0 8.059 0.166 3.159 0.332 6.317 0.504 9.57 126.661 0 253.323 0 383.822 0 0-117.020 0-234.041 0-354.607-6.152-0.879-12.422-0.504-18.637-0.504 0-45.545 0-91.090 0-138.015-0.665 0-1.329 0-2.015 0 0-0.499 0-0.997 0-1.511-158.41 0-316.82 0-480.029 0z"></path>
<path fill="#fefefe" d="M167.348 43.437c47.706 0 95.411 0 144.563 0 0 0.166 0 0.333 0 0.504-0.997 0-1.995 0-3.022 0 0 38.065 0 76.129 0 115.348-46.376 0-92.752 0-140.533 0 0-38.065 0-76.129 0-115.348-0.333-0.166-0.665-0.333-1.007-0.504z"></path>
<path fill="#fefefe" d="M327.022 43.437c44.88 0 89.76 0 136 0 0 38.231 0 76.463 0 115.852-44.215 0-88.43 0-133.985 0 0-38.065 0-76.129 0-115.348-0.665-0.166-1.329-0.333-2.015-0.504z"></path>
<path fill="#fefefe" d="M29.333 43.437c39.561 0 79.121 0 119.881 0-0.333 0.166-0.665 0.333-1.007 0.504 0 38.065 0 76.129 0 115.348-8.643 0-17.287 0-26.193 0 0 4.821 0 9.641 0 14.607-30.419 0-60.837 0-92.177 0 0 0.997 0 1.995 0 3.023-0.166 0-0.332 0-0.503 0 0-44.049 0-88.097 0-133.482z"></path>
<path fill="#fefefe" d="M29.333 337.6c30.585 0 61.169 0 92.681 0 0 44.548 0 89.095 0 134.993-30.585 0-61.169 0-92.681 0 0-44.548 0-89.095 0-134.993z"></path>
<path fill="#fefefe" d="M29.333 191.526c0.166 0 0.332 0 0.503 0 0 0.831 0 1.662 0 2.518 30.419 0 60.837 0 92.177 0 0 40.725 0 81.449 0 123.407-30.585 0-61.169 0-92.681 0 0-41.555 0-83.111 0-125.926z"></path>
</svg>
