<?xml version="1.0" encoding="UTF-8" standalone="no"?><!DOCTYPE svg PUBLIC "-//W3C//DTD SVG 1.1//EN" "http://www.w3.org/Graphics/SVG/1.1/DTD/svg11.dtd"><svg width="100%" height="100%" viewBox="0 0 100 100" version="1.1" xmlns="http://www.w3.org/2000/svg" xmlns:xlink="http://www.w3.org/1999/xlink" xml:space="preserve" xmlns:serif="http://www.serif.com/" style="fill-rule:evenodd;clip-rule:evenodd;stroke-linejoin:round;stroke-miterlimit:2;"><path d="M86.98,12.5l0.52,0c2.301,0 4.167,1.866 4.167,4.167l0,66.667c0,2.301 -1.865,4.167 -4.167,4.167l-43.377,0l4.762,-8.333l34.448,0l0,-41.667l-10.639,0l14.286,-25Z"/><path d="M13.02,87.5l-0.52,0c-2.301,0 -4.167,-1.865 -4.167,-4.167l0,-66.667c0,-2.301 1.865,-4.167 4.167,-4.167l43.377,0l-14.286,25l-24.924,0l0,41.667l1.115,0l-4.762,8.333Z"/><path d="M33.487,93.517l49.733,-87.033l-16.707,-0l-49.733,87.033l16.707,0Z" style="fill-rule:nonzero;"/></svg>