<?xml version="1.0" encoding="UTF-8" standalone="no"?><!DOCTYPE svg PUBLIC "-//W3C//DTD SVG 1.1//EN" "http://www.w3.org/Graphics/SVG/1.1/DTD/svg11.dtd"><svg width="100%" height="100%" viewBox="0 0 100 100" version="1.1" xmlns="http://www.w3.org/2000/svg" xmlns:xlink="http://www.w3.org/1999/xlink" xml:space="preserve" xmlns:serif="http://www.serif.com/" style="fill-rule:evenodd;clip-rule:evenodd;stroke-linejoin:round;stroke-miterlimit:2;"><path d="M31.573,98.561l55.498,-97.122l-18.643,0l-55.498,97.122l18.643,0Z" style="fill-rule:nonzero;"/><path d="M60.169,8.333l-39.335,-0c-6.904,0 -12.5,5.596 -12.5,12.5l0,58.333c0,4.291 2.163,8.078 5.457,10.329l4.175,-7.306c-0.8,-0.759 -1.299,-1.833 -1.299,-3.023l0,-58.333c0,-2.301 1.866,-4.167 4.167,-4.167l34.573,0l4.762,-8.333Z"/><path d="M39.831,91.667l39.335,0c6.904,0 12.5,-5.596 12.5,-12.5l0,-58.333c0,-4.291 -2.162,-8.078 -5.457,-10.329l-4.175,7.306c0.8,0.759 1.299,1.833 1.299,3.023l0,58.333c0,2.301 -1.865,4.167 -4.167,4.167l-34.574,0l-4.762,8.333Z"/></svg>