<?xml version="1.0" encoding="UTF-8" standalone="no"?><!DOCTYPE svg PUBLIC "-//W3C//DTD SVG 1.1//EN" "http://www.w3.org/Graphics/SVG/1.1/DTD/svg11.dtd"><svg width="100%" height="100%" viewBox="0 0 100 100" version="1.1" xmlns="http://www.w3.org/2000/svg" xmlns:xlink="http://www.w3.org/1999/xlink" xml:space="preserve" xmlns:serif="http://www.serif.com/" style="fill-rule:evenodd;clip-rule:evenodd;stroke-linejoin:round;stroke-miterlimit:2;"><path d="M20.833,8.333c-6.904,0 -12.5,5.596 -12.5,12.5l0,58.333c0,6.904 5.596,12.5 12.5,12.5l58.333,0c6.904,0 12.5,-5.596 12.5,-12.5l0,-58.333c0,-6.904 -5.596,-12.5 -12.5,-12.5l-58.333,0Zm-4.167,12.5c0,-2.301 1.866,-4.167 4.167,-4.167l58.333,0c2.301,0 4.167,1.866 4.167,4.167l0,58.333c0,2.301 -1.865,4.167 -4.167,4.167l-58.333,0c-2.301,0 -4.167,-1.865 -4.167,-4.167l0,-58.333Z" style="fill-rule:nonzero;"/></svg>