<!-- Generated by IcoMoon.io -->
<svg version="1.1" xmlns="http://www.w3.org/2000/svg" width="528" height="512" viewBox="0 0 528 512">
<g id="icomoon-ignore">
</g>
<path fill="#fefefe" d="M-16.252-16.252c181.333 0 362.667 0 544 0 0 181.333 0 362.667 0 544-181.333 0-362.667 0-544 0 0-181.333 0-362.667 0-544z"></path>
<path fill="#000" d="M480.4 355.985c0-6.38 0-12.76 0-19.141 0-0.168 0-0.336 0-0.503 0-98.894 0-197.787 0-296.682-44.577-0.503-89.239-0.672-133.985-0.504-6.548 0-13.096 0-19.644 0-47.348 0-94.697 0-142.044 0-6.716 0-13.432 0-20.148 0-39.121 0-78.242 0-117.363 0-0.672 99.23-0.672 198.459 0 297.689 0 6.716 0 13.432 0 20.148-0.503 35.678-0.672 71.441-0.504 107.289 39.289 0 78.578 0 117.867 0 6.716 0 13.432 0 20.148 0 47.348 0 94.696 0 142.044 0 2.519 0 5.037 0 7.555 0-2.933 12.572-5.788 25.165-8.563 37.778-105.61 0-211.22 0-316.829 0 0-166.894 0-333.788 0-500.682 169.916 0 339.832 0 509.748 0 0 119.21 0 238.419 0 357.63-12.759-1.063-25.517-2.070-38.281-3.022z"></path>
<path fill="#545454" d="M47.215 39.156c0 37.274 0 74.548 0 111.823 39.121 0 78.242 0 117.363 0 0-37.274 0-74.548 0-111.823 6.716 0 13.432 0 20.148 0-0.168 37.359 0 74.633 0.504 111.823 47.013 0 94.025 0 141.037 0 0.503-37.189 0.671-74.463 0.503-111.823 6.548 0 13.096 0 19.644 0-0.168 37.359 0 74.633 0.503 111.823 44.326 0 88.652 0 132.978 0 0 6.716 0 13.432 0 20.148-44.326 0-88.652 0-132.977 0 0 55.24 0 110.479 0 165.719 8.731 0 17.462 0 26.192 0-1.726 5.134-3.741 10.171-6.045 15.111-16.911 1.978-33.869 3.49-50.874 4.533-43.822 0-87.644 0-131.467 0 0 35.763 0 71.526 0 107.289 0 0.168 0 0.336 0 0.503-6.716 0-13.432 0-20.148 0 0-0.168 0-0.336 0-0.503 0-35.596 0-71.19 0-106.785-39.121 0-78.242 0-117.363 0 0-6.716 0-13.432 0-20.148-0.672-99.23-0.672-198.459 0-297.689z"></path>
<path fill="#fefefe" d="M47.215 39.156c39.121 0 78.242 0 117.363 0 0 37.274 0 74.548 0 111.823-39.121 0-78.242 0-117.363 0 0-37.274 0-74.548 0-111.823z"></path>
<path fill="#c3c3c3" d="M184.726 39.156c47.348 0 94.697 0 142.044 0 0.168 37.359-0 74.633-0.503 111.823 0-37.106 0-74.213 0-111.319-47.012 0-94.025 0-141.037 0 0 37.106 0 74.213 0 111.319-0.503-37.189-0.672-74.463-0.504-111.823z"></path>
<path fill="#fefffe" d="M326.267 150.977c-47.012 0-94.025 0-141.037 0 0-37.106 0-74.213 0-111.319 47.013 0 94.025 0 141.037 0 0 37.106 0 74.213 0 111.319z"></path>
<path fill="#a6a6a6" d="M346.415 39.156c44.747-0.168 89.409 0.001 133.985 0.504-44.494 0-88.988 0-133.482 0 0 37.106 0 74.213 0 111.319-0.503-37.189-0.671-74.463-0.503-111.823z"></path>
<path fill="#fefefe" d="M47.215 336.844c0-55.24 0-110.479 0-165.719 39.121 0 78.242 0 117.363 0 0 55.24 0 110.478 0 165.719-39.121 0-78.242 0-117.363 0z"></path>
<path fill="#000" d="M403.333 280.43c0.925 0.313 1.512 0.986 1.763 2.015 10.457 25.196 21.12 50.297 31.985 75.303 28.024 2.657 56.063 5.175 84.119 7.555-21.332 18.649-42.658 37.286-63.971 55.911 6.536 26.985 12.916 54.017 19.141 81.096-0.168 0.252-0.336 0.503-0.503 0.755-24.010-14.441-48.019-28.878-72.029-43.319-24.16 14.507-48.254 29.114-72.281 43.822 5.93-27.498 12.226-54.95 18.889-82.356-21.18-18.743-42.502-37.381-63.971-55.911 28.228-2.406 56.435-5.008 84.623-7.808 10.894-25.647 21.639-51.336 32.237-77.067z"></path>
<path fill="#cfcfcf" d="M185.23 171.126c0 55.071 0 110.143 0 165.215 47.013 0 94.025 0 141.037 0 0-55.072 0-110.144 0-165.215 0.503 55.155 0.671 110.394 0.503 165.719-47.348 0-94.697 0-142.044 0-0.168-55.325 0-110.563 0.504-165.719z"></path>
<path fill="#fefefe" d="M185.23 171.126c47.013 0 94.025 0 141.037 0 0 55.071 0 110.143 0 165.215-47.012 0-94.025 0-141.037 0 0-55.072 0-110.144 0-165.215z"></path>
<path fill="#d4d4d4" d="M480.4 336.341c0 0.168 0 0.336 0 0.503-15.365-0.167-30.644 0.001-45.837 0.503-0.274-0.031-0.442-0.198-0.503-0.503 15.443-0.503 30.89-0.671 46.341-0.503z"></path>
<path fill="#545454" d="M480.4 336.844c0 6.38 0 12.76 0 19.141-13.259-1.205-26.523-2.38-39.793-3.526-1.734-5.147-3.749-10.185-6.045-15.111 15.192-0.502 30.471-0.671 45.837-0.503z"></path>
<path fill="#fefffe" d="M47.215 356.993c39.121 0 78.242 0 117.363 0 0 35.596 0 71.19 0 106.785-39.121 0-78.242 0-117.363 0 0-35.596 0-71.19 0-106.785z"></path>
<path fill="#c5c5c5" d="M316.192 356.489c-43.57 0.503-87.224 0.671-130.963 0.503 0 35.596 0 71.19 0 106.785-0.168 0-0.336 0-0.504 0 0-35.763 0-71.526 0-107.289 43.822 0 87.644 0 131.467 0z"></path>
<path fill="#000" d="M518.178 375.63c0.504 42.058 0.67 84.202 0.504 126.43-12.255 0-24.515 0-36.77 0-2.596-12.471-5.45-24.897-8.563-37.274 2.327-0.5 4.678-0.668 7.052-0.503-0.084-18.638 0-37.275 0.252-55.911 12.608-10.846 25.115-21.759 37.526-32.741z"></path>
<path fill="#545454" d="M327.274 408.37c5.788 4.697 11.329 9.651 16.623 14.859-3.096 13.725-6.288 27.409-9.57 41.052-2.519 0-5.037 0-7.555 0-0.168-18.723 0.001-37.359 0.503-55.911z"></path>
<path fill="#9f9f9f" d="M47.215 356.993c0 35.596 0 71.19 0 106.785 39.121 0 78.242 0 117.363 0 0 0.168 0 0.336 0 0.503-39.289 0-78.578 0-117.867 0-0.168-35.848 0.001-71.611 0.504-107.289z"></path>
<path fill="#bdbdbd" d="M327.274 408.37c-0.502 18.551-0.671 37.188-0.503 55.911-47.348 0-94.697 0-142.044 0 0-0.168 0-0.336 0-0.503 0.168 0 0.335 0 0.504 0 47.012 0 94.025 0 141.037 0-0.168-18.64 0-37.278 0.503-55.911 0.306 0.063 0.474 0.23 0.503 0.503z"></path>
<path fill="#010101" d="M403.333 466.296c19.783 11.572 39.428 23.407 58.933 35.511-38.953 0.337-77.906 0.337-116.859 0 19.509-11.595 38.818-23.435 57.926-35.511z"></path>
</svg>
