<!-- Generated by IcoMoon.io -->
<svg version="1.1" xmlns="http://www.w3.org/2000/svg" width="528" height="512" viewBox="0 0 528 512">
<g id="icomoon-ignore">
</g>
<path fill="#fefefe" d="M-8-16c181.333 0 362.667 0 544 0 0 181.333 0 362.667 0 544-181.333 0-362.667 0-544 0 0-181.333 0-362.667 0-544z"></path>
<path fill="#010101" d="M520.889 36.385c-0.504 109.052-0.67 218.188-0.504 327.408-0.504 0-1.007 0-1.511 0-6.221-0.413-12.437-0.917-18.637-1.511 0.166-108.045 0-216.005-0.503-323.882-47.852 0-95.704 0-143.555 0 0-0.672 0-1.343 0-2.015-6.716 0-13.432 0-20.148 0 0 0.672 0 1.343 0 2.015-47.684 0-95.368 0-143.052 0-6.716 0-13.432 0-20.148 0-43.654 0-87.308 0-130.963 0-0.672 147.753-0.672 295.506 0 443.259 43.654 0 87.309 0 130.963 0 6.716 0 13.432 0 20.148 0 47.684 0 95.368 0 143.052 0 1.454-0.257 2.63 0.079 3.526 1.007-1.394 6.498-2.906 12.965-4.533 19.393-104.77 0.252-209.541 0.337-314.311 0.252 0-162.192 0-324.385 0-486.577 166.726 0 333.452 0 500.178 0 0 6.884 0 13.768 0 20.652z"></path>
<path fill="#5d5d5d" d="M520.889 36.385c0 109.304 0 218.607 0 327.911-0.806 0.135-1.476-0.034-2.015-0.503 0.504 0 1.007 0 1.511 0-0.167-109.22 0-218.356 0.504-327.408z"></path>
<path fill="#535353" d="M356.178 38.4c0 39.96 0 79.921 0 119.881-6.716 0-13.432 0-20.148 0 0-39.96 0-79.921 0-119.882 0-0.672 0-1.343 0-2.015 6.716 0 13.432 0 20.148 0 0 0.672 0 1.343 0 2.015z"></path>
<path fill="#fefefe" d="M41.867 38.4c43.655 0 87.309 0 130.963 0 0 39.96 0 79.921 0 119.881-5.876 0-11.753 0-17.63 0 0 6.381 0 12.76 0 19.141-37.778 0-75.555 0-113.333 0 0-46.341 0-92.681 0-139.023z"></path>
<path fill="#545454" d="M172.829 38.4c6.716 0 13.432 0 20.148 0 0 39.96 0 79.921 0 119.881-6.716 0-13.432 0-20.148 0 0-39.96 0-79.921 0-119.882z"></path>
<path fill="#fefefe" d="M192.978 38.4c47.684 0 95.368 0 143.052 0 0 39.96 0 79.921 0 119.881-47.684 0-95.368 0-143.052 0 0-39.96 0-79.921 0-119.882z"></path>
<path fill="#fefefe" d="M356.178 38.4c47.852 0 95.704 0 143.555 0 0 46.341 0 92.681 0 139.023-41.471 0-82.944 0-124.415 0 0-6.381 0-12.76 0-19.141-6.38 0-12.76 0-19.141 0 0-39.96 0-79.921 0-119.882z"></path>
<path fill="#000" d="M172.829 158.281c6.716 0 13.432 0 20.148 0 47.684 0 95.368 0 143.052 0 6.716 0 13.432 0 20.148 0 6.38 0 12.76 0 19.141 0 0 6.381 0 12.76 0 19.141 0 6.716 0 13.432 0 20.148 0 46.508 0 93.017 0 139.526 0 6.548 0 13.096 0 19.644-0.192 0.721-0.695 1.14-1.511 1.259-27.406 2.263-54.774 4.782-82.103 7.555-3.274 2.515-3.778 5.454-1.511 8.815-32.236 0.503-64.472 0.671-96.711 0.503-0.168 0-0.336 0-0.504 0-6.716 0-13.432 0-20.148 0-5.876 0-11.753 0-17.63 0 0-5.877 0-11.753 0-17.63 0-0.168 0-0.336 0-0.503 0-6.548 0-13.096 0-19.644 0-46.509 0-93.017 0-139.526 0-6.716 0-13.432 0-20.148 0-6.381 0-12.76 0-19.141 5.876 0 11.753 0 17.63 0z"></path>
<path fill="#575757" d="M41.867 38.4c0 46.341 0 92.681 0 139.023 37.777 0 75.555 0 113.333 0 0 6.716 0 13.432 0 20.148-37.778 0-75.555 0-113.333 0 0 46.508 0 93.018 0 139.526 0 6.548 0 13.096 0 19.644 37.778 0 75.555 0 113.333 0 0 0.168 0 0.336 0 0.503-37.778 0-75.555 0-113.333 0 0 41.471 0 82.944 0 124.415-0.672-147.753-0.672-295.506 0-443.259z"></path>
<path fill="#535353" d="M375.319 177.423c41.471 0 82.944 0 124.415 0 0 6.716 0 13.432 0 20.148-41.471 0-82.943 0-124.415 0 0-6.716 0-13.432 0-20.148z"></path>
<path fill="#535353" d="M192.978 196.563c48.019 0 96.040 0 144.059 0 0.334 46.847-0.001 93.524-1.007 140.029 0-46.341 0-92.681 0-139.023-47.516 0-95.032 0-142.548 0-0.168 0-0.335 0-0.504 0 0-0.336 0-0.672 0-1.007z"></path>
<path fill="#343434" d="M192.978 196.563c48.103-0.503 96.291-0.672 144.563-0.504 0 47.013 0 94.025 0 141.037-0.503 0-1.007 0-1.511 0 0-0.168 0-0.336 0-0.503 1.006-46.505 1.342-93.183 1.007-140.030-48.019 0-96.040 0-144.059 0z"></path>
<path fill="#fefefe" d="M155.2 197.571c0 46.508 0 93.018 0 139.526-37.778 0-75.555 0-113.333 0 0-46.509 0-93.017 0-139.526 37.778 0 75.555 0 113.333 0z"></path>
<path fill="#fefefe" d="M193.482 197.571c47.516 0 95.032 0 142.548 0 0 46.341 0 92.681 0 139.023-47.516 0-95.032 0-142.548 0 0-46.341 0-92.681 0-139.023z"></path>
<path fill="#868686" d="M499.733 38.4c0.503 107.876 0.67 215.837 0.503 323.882-0.493-1.574-0.66-3.253-0.503-5.037-17.043 0.168-34.002-0.001-50.874-0.503 16.958 0 33.916 0 50.874 0 0-6.548 0-13.096 0-19.644 0-46.508 0-93.017 0-139.526 0-6.716 0-13.432 0-20.148 0-46.341 0-92.681 0-139.023z"></path>
<path fill="#000" d="M412.089 285.719c11.175 25.712 22.089 51.569 32.741 77.57 28.195 2.613 56.405 5.132 84.623 7.555-21.483 18.464-42.808 37.101-63.971 55.911 6.623 27.329 12.919 54.697 18.889 82.103-23.908-14.759-48.002-29.198-72.281-43.319-23.906 14.221-47.749 28.575-71.526 43.067-0.495 0.297-0.831 0.131-1.007-0.503 6.349-27.129 12.729-54.245 19.141-81.348-21.068-18.632-42.223-37.185-63.467-55.659 27.483-2.923 55.019-5.442 82.608-7.555 0.567-0.125 1.070-0.377 1.511-0.755 10.819-25.745 21.733-51.433 32.741-77.067z"></path>
<path fill="#a3a3a3" d="M192.978 197.571c0.168 0 0.336 0 0.504 0 0 46.341 0 92.681 0 139.023 47.516 0 95.032 0 142.548 0 0 0.168 0 0.336 0 0.503-47.684 0-95.368 0-143.052 0 0-46.509 0-93.017 0-139.526z"></path>
<path fill="#535353" d="M41.867 337.096c37.777 0 75.555 0 113.333 0 0 6.548 0 13.096 0 19.644-37.778 0-75.555 0-113.333 0 0-6.548 0-13.096 0-19.644z"></path>
<path fill="#555" d="M375.319 337.096c2.859-0.084 5.714 0 8.563 0.252-2.62 6.611-5.474 13.075-8.563 19.393 0-6.548 0-13.096 0-19.644z"></path>
<path fill="#545454" d="M499.733 337.096c0 6.548 0 13.096 0 19.644-16.958 0-33.916 0-50.874 0-2.893-6.401-5.748-12.865-8.563-19.392 19.812-0.252 39.624-0.336 59.437-0.252z"></path>
<path fill="#fefefe" d="M155.2 357.245c0 5.877 0 11.753 0 17.63 5.876 0 11.753 0 17.63 0 0 35.596 0 71.19 0 106.785-43.654 0-87.308 0-130.963 0 0-41.471 0-82.943 0-124.415 37.778 0 75.555 0 113.333 0z"></path>
<path fill="#545454" d="M172.829 374.875c6.716 0 13.432 0 20.148 0 0 35.596 0 71.19 0 106.785-6.716 0-13.432 0-20.148 0 0-35.596 0-71.19 0-106.785z"></path>
<path fill="#000" d="M519.881 386.963c0.337 31.566 0.67 63.13 1.008 94.697 0 6.885 0 13.767 0 20.652-10.577 0-21.156 0-31.733 0-1.75-6.83-3.26-13.716-4.533-20.652 5.204 0 10.41 0 15.615 0-0.086-26.026 0-52.050 0.252-78.074 6.548-5.458 13.011-10.999 19.393-16.623z"></path>
<path fill="#5d5d5d" d="M519.881 386.963c0.030-0.274 0.197-0.442 0.504-0.503 0.504 31.731 0.67 63.464 0.504 95.2-0.337-31.566-0.67-63.13-1.008-94.697z"></path>
<path fill="#545454" d="M339.555 482.667c-0.896-0.928-2.072-1.264-3.526-1.007 0-0.168 0-0.336 0-0.503-0.084-22.163 0-44.327 0.252-66.489 4.281 3.61 8.563 7.219 12.844 10.829 1.203 1.033 2.21 2.209 3.022 3.526-4.175 17.957-8.373 35.838-12.592 53.644z"></path>
<path fill="#e8e8e8" d="M192.978 374.875c0.168 0 0.336 0 0.504 0 0 35.427 0 70.855 0 106.281 47.516 0 95.032 0 142.548 0 0 0.168 0 0.336 0 0.503-47.684 0-95.368 0-143.052 0 0-35.596 0-71.19 0-106.785z"></path>
<path fill="#000" d="M395.467 481.659c11.083-0.084 22.164 0 33.245 0.252 11.082 6.714 22.163 13.433 33.245 20.148-33.245 0.337-66.489 0.337-99.733 0 11.197-6.684 22.279-13.484 33.245-20.4z"></path>
</svg>
