<!-- Generated by IcoMoon.io -->
<svg version="1.1" xmlns="http://www.w3.org/2000/svg" width="512" height="512" viewBox="0 0 512 512">
<g id="icomoon-ignore">
</g>
<path fill="#fefefe" d="M0 0c45.827 0 91.654 0 137.482 0 0 6.953 0 13.906 0 20.86-37.768 0-75.535 0-113.303 0 0 156.761 0 313.521 0 470.281 37.768 0 75.535 0 113.303 0 0 6.954 0 13.904 0 20.859-45.828 0-91.654 0-137.482 0 0-170.667 0-341.334 0-512z"></path>
<path fill="#000" d="M137.482 0c76.642 0 153.284 0 229.926 0 0 6.953 0 13.906 0 20.86 0 6.479 0 12.958 0 19.437 0 41.244 0 82.489 0 123.733 0 6.321 0 12.642 0 18.963 0 44.721 0 89.442 0 134.163 0 0.158 0 0.316 0 0.474 0 6.321 0 12.642 0 18.963 0 45.037 0 90.074 0 135.111 0 6.481 0 12.957 0 19.437 0 6.954 0 13.904 0 20.859-76.642 0-153.284 0-229.926 0 0-6.954 0-13.904 0-20.86 0-6.481 0-12.957 0-19.437 0-45.037 0-90.074 0-135.111 0-0.158 0-0.316 0-0.474 0-6.163 0-12.326 0-18.489 0-0.158 0-0.316 0-0.474 0-44.721 0-89.442 0-134.163 0-6.321 0-12.642 0-18.963 0-0.158 0-0.316 0-0.474 0-41.087 0-82.172 0-123.26 0-6.479 0-12.958 0-19.437 0-6.953 0-13.906 0-20.86z"></path>
<path fill="#fefefe" d="M367.408 0c48.197 0 96.395 0 144.592 0 0 170.667 0 341.334 0 512-48.197 0-96.395 0-144.592 0 0-6.954 0-13.904 0-20.86 38.4 0 76.8 0 115.2 0 0-156.76 0-313.521 0-470.281-38.4 0-76.8 0-115.2 0 0-6.953 0-13.906 0-20.86z"></path>
<path fill="#545454" d="M137.482 20.859c0 6.479 0 12.958 0 19.437-31.131 0-62.261 0-93.392 0-0.632 143.803-0.632 287.605 0 431.408 31.131 0 62.261 0 93.392 0 0 6.481 0 12.957 0 19.437-37.768 0-75.535 0-113.303 0 0-156.761 0-313.521 0-470.281 37.768 0 75.535 0 113.303 0z"></path>
<path fill="#555" d="M367.408 20.859c38.4 0 76.8 0 115.2 0 0 156.761 0 313.521 0 470.281-38.4 0-76.8 0-115.2 0 0-6.481 0-12.957 0-19.437 31.131 0 62.262 0 93.392 0 0-45.037 0-90.074 0-135.111-31.131 0-62.262 0-93.392 0 0-6.321 0-12.642 0-18.963 31.289 0 62.578 0 93.866 0 0.158-92.524 0-184.968-0.474-277.334-31.131 0-62.262 0-93.392 0 0-6.479 0-12.958 0-19.437z"></path>
<path fill="#fefffe" d="M44.089 40.77c30.972 0 61.946 0 92.918 0 0 40.928 0 81.857 0 122.785-30.972 0-61.946 0-92.918 0 0-40.928 0-81.857 0-122.785z"></path>
<path fill="#f2f2f2" d="M44.089 40.77c0-0.158 0-0.316 0-0.474 31.131 0 62.261 0 93.392 0 0 41.087 0 82.172 0 123.26-0.158 0-0.316 0-0.474 0 0-40.928 0-81.857 0-122.785-30.972 0-61.946 0-92.918 0z"></path>
<path fill="#fefefe" d="M367.408 40.297c31.131 0 62.262 0 93.392 0 0 41.244 0 82.489 0 123.733-31.131 0-62.262 0-93.392 0 0-41.245 0-82.489 0-123.734z"></path>
<path fill="#fefffe" d="M317.156 45.511c0 33.817 0 67.635 0 101.452-42.983 0-85.966 0-128.948 0 0-33.817 0-67.635 0-101.452 42.983 0 85.965 0 128.948 0z"></path>
<path fill="#838383" d="M317.156 45.511c0.474 33.895 0.632 67.871 0.474 101.926-43.221 0.158-86.361-0-129.422-0.474 42.983 0 85.965 0 128.948 0 0-33.817 0-67.635 0-101.452z"></path>
<path fill="#535353" d="M137.482 164.030c0 6.321 0 12.642 0 18.963-31.131 0-62.261 0-93.392 0 0-6.321 0-12.642 0-18.963 31.131 0 62.261 0 93.392 0z"></path>
<path fill="#535453" d="M367.408 164.030c31.131 0 62.262 0 93.392 0 0 6.321 0 12.642 0 18.963-31.131 0-62.262 0-93.392 0 0-6.321 0-12.642 0-18.963z"></path>
<path fill="#bbb" d="M44.089 40.297c0 0.158 0 0.316 0 0.474 0 40.928 0 81.857 0 122.785 30.972 0 61.946 0 92.918 0 0.158 0 0.316 0 0.474 0 0 0.158 0 0.316 0 0.474-31.131 0-62.261 0-93.392 0 0 6.321 0 12.642 0 18.963 0 44.721 0 89.442 0 134.163 31.131 0 62.261 0 93.392 0 0 0.158 0 0.316 0 0.474-31.131 0-62.261 0-93.392 0 0 6.163 0 12.326 0 18.489 31.131 0 62.261 0 93.392 0 0 0.158 0 0.316 0 0.474-0.158 0-0.316 0-0.474 0-30.972 0-61.946 0-92.918 0 0 44.879 0 89.758 0 134.637 0 0.158 0 0.316 0 0.474-0.632-143.803-0.632-287.605 0-431.408z"></path>
<path fill="#fefefe" d="M44.089 182.993c31.131 0 62.261 0 93.392 0 0 44.721 0 89.442 0 134.163-31.131 0-62.261 0-93.392 0 0-44.721 0-89.442 0-134.163z"></path>
<path fill="#fefefe" d="M188.208 182.993c43.141 0 86.282 0 129.422 0 0 42.035 0 84.069 0 126.103-43.14 0-86.281 0-129.422 0 0-42.034 0-84.069 0-126.103z"></path>
<path fill="#fefffe" d="M367.408 182.993c31.131 0 62.262 0 93.392 0 0 44.721 0 89.442 0 134.163-31.131 0-62.262 0-93.392 0 0-44.721 0-89.442 0-134.163z"></path>
<path fill="#b8b8b8" d="M460.8 40.297c0.474 92.365 0.632 184.81 0.474 277.334-31.289 0-62.578 0-93.866 0 0-0.158 0-0.316 0-0.474 31.131 0 62.262 0 93.392 0 0-44.721 0-89.442 0-134.163 0-6.321 0-12.642 0-18.963 0-41.245 0-82.489 0-123.734z"></path>
<path fill="#535353" d="M137.482 317.63c0 6.163 0 12.326 0 18.489-31.131 0-62.261 0-93.392 0 0-6.163 0-12.326 0-18.489 31.131 0 62.261 0 93.392 0z"></path>
<path fill="#fefffe" d="M137.007 336.592c0 44.879 0 89.758 0 134.637-30.972 0-61.946 0-92.918 0 0-44.879 0-89.758 0-134.637 30.972 0 61.946 0 92.918 0z"></path>
<path fill="#f2f2f2" d="M137.007 336.592c0.158 0 0.316 0 0.474 0 0 45.037 0 90.074 0 135.111-31.131 0-62.261 0-93.392 0 0-0.158 0-0.316 0-0.474 30.972 0 61.946 0 92.919 0 0-44.879 0-89.758 0-134.637z"></path>
<path fill="#fefefe" d="M367.408 336.592c31.131 0 62.262 0 93.392 0 0 45.037 0 90.074 0 135.111-31.131 0-62.262 0-93.392 0 0-45.037 0-90.074 0-135.111z"></path>
<path fill="#fefffe" d="M188.208 345.126c42.983 0 85.965 0 128.948 0 0 41.087 0 82.173 0 123.26-42.983 0-85.966 0-128.948 0 0-41.087 0-82.173 0-123.26z"></path>
<path fill="#b5b5b5" d="M188.208 345.126c43.061-0.474 86.202-0.632 129.422-0.474 0.158 41.324-0 82.569-0.474 123.733 0-41.087 0-82.173 0-123.26-42.983 0-85.966 0-128.948 0z"></path>
</svg>
