<!-- Generated by IcoMoon.io -->
<svg version="1.1" xmlns="http://www.w3.org/2000/svg" width="528" height="512" viewBox="0 0 528 512">
<g id="icomoon-ignore">
</g>
<path fill="#545454" d="M-17-16c179.52 0 359.040 0 544 0 0 179.52 0 359.040 0 544-179.52 0-359.040 0-544 0 0-179.52 0-359.040 0-544z"></path>
<path fill="#000" d="M3.652 143.674c171.541 0 343.083 0 519.822 0 0 69.98 0 139.959 0 212.059-171.541 0-343.083 0-519.822 0 0-69.979 0-139.959 0-212.059z"></path>
<path fill="#545454" d="M22.289 14.726c158.576 0 317.152 0 480.533 0 0 0.332 0 0.665 0 1.008 0.665 0 1.329 0 2.015 0 0 42.221 0 84.441 0 127.941-159.241 0-318.481 0-482.548 0 0-42.553 0-85.106 0-128.948z"></path>
<path fill="#fefefe" d="M-17-16c179.52 0 359.040 0 544 0 0 179.52 0 359.040 0 544-179.52 0-359.040 0-544 0 0-179.52 0-359.040 0-544zM22.289 14.726c0 42.553 0 85.106 0 128.948-6.151 0-12.3 0-18.637 0 0 69.98 0 139.959 0 212.059 6.151 0 12.3 0 18.637 0 0 44.714 0 89.428 0 135.497 159.241 0 318.481 0 482.548 0 0-44.714 0-89.428 0-135.496 6.151 0 12.301 0 18.637 0 0-69.98 0-139.959 0-212.059-6.15 0-12.3 0-18.637 0 0-42.221 0-84.441 0-127.941-0.665 0-1.329 0-2.015 0 0-0.332 0-0.665 0-1.008-158.576 0-317.152 0-480.533 0z"></path>
<path fill="#fefefe" d="M184.985 355.733c46.542 0 93.084 0 141.037 0 0 36.735 0 73.471 0 111.319 0.831 0 1.663 0 2.519 0 0 0.166 0 0.332 0 0.503-47.706 0-95.411 0-144.563 0 0.333-0.166 0.665-0.332 1.007-0.503 0-36.735 0-73.471 0-111.318z"></path>
<path fill="#fefefe" d="M184.985 191.023c45.047 0 90.092 0 136.504 0 0 37.4 0 74.8 0 113.333-45.046 0-90.093 0-136.504 0 0-37.4 0-74.8 0-113.333z"></path>
<path fill="#fdfdfd" d="M345.667 355.733c44.381 0 88.763 0 134.489 0 0 36.901 0 73.803 0 111.822-44.88 0-89.76 0-136 0 0.499-0.166 0.997-0.332 1.511-0.503 0-36.735 0-73.471 0-111.318z"></path>
<path fill="#fefefe" d="M184.985 38.4c46.542 0 93.084 0 141.037 0 0 34.741 0 69.481 0 105.274-46.543 0-93.084 0-141.037 0 0-34.74 0-69.481 0-105.274z"></path>
<path fill="#fdfdfd" d="M354.229 191.023c41.555 0 83.111 0 125.926 0 0 37.4 0 74.8 0 113.333-41.555 0-83.111 0-125.926 0 0-37.4 0-74.8 0-113.333z"></path>
<path fill="#fefefe" d="M345.667 38.4c44.381 0 88.763 0 134.489 0 0 34.741 0 69.481 0 105.274-44.381 0-88.763 0-134.489 0 0-34.74 0-69.481 0-105.274z"></path>
<path fill="#fefefe" d="M46.467 356.237c39.063 0 78.124 0 118.371 0 0 36.569 0 73.137 0 110.815 0.499 0.166 0.997 0.332 1.511 0.503-39.561 0-79.121 0-119.882 0 0-36.735 0-73.471 0-111.319z"></path>
<path fill="#fefefe" d="M45.963 38.4c39.395 0 78.789 0 119.377 0 0 34.741 0 69.481 0 105.274-39.395 0-78.789 0-119.377 0 0-34.74 0-69.481 0-105.274z"></path>
<path fill="#fefefe" d="M46.467 191.023c34.907 0 69.813 0 105.778 0 0 37.4 0 74.8 0 113.333-34.907 0-69.813 0-105.778 0 0-37.4 0-74.8 0-113.333z"></path>
</svg>
