<!-- Generated by IcoMoon.io -->
<svg version="1.1" xmlns="http://www.w3.org/2000/svg" width="512" height="512" viewBox="0 0 512 512">
<g id="icomoon-ignore">
</g>
<path fill="#fefefe" d="M0 0c170.667 0 341.334 0 512 0 0 170.667 0 341.334 0 512-170.667 0-341.334 0-512 0 0-170.667 0-341.334 0-512z"></path>
<path fill="#000" d="M353.659 20.859c0 6.479 0 12.958 0 19.437 0 41.245 0 82.489 0 123.734 0 6.321 0 12.642 0 18.963 0 44.879 0 89.758 0 134.637 0 6.163 0 12.326 0 18.489 0 45.195 0 90.391 0 135.585 0 6.481 0 12.957 0 19.437 0 4.423 0 8.851 0 13.274-72.060 0-144.119 0-216.178 0 0-4.423 0-8.851 0-13.274 0-6.481 0-12.957 0-19.437 0-45.037 0-90.074 0-135.111 0-0.158 0-0.315 0-0.474 0-6.163 0-12.326 0-18.489 0-0.158 0-0.315 0-0.474 0-44.721 0-89.442 0-134.163 0-6.321 0-12.642 0-18.963 0-0.158 0-0.315 0-0.474 0-41.087 0-82.172 0-123.26 0-6.479 0-12.958 0-19.437 0-4.424 0-8.85 0-13.274 72.060 0 144.119 0 216.178 0 0 4.425 0 8.85 0 13.274z"></path>
<path fill="#545454" d="M137.482 20.859c0 6.479 0 12.958 0 19.437-31.131 0-62.261 0-93.392 0-0.632 143.803-0.632 287.605 0 431.408 31.131 0 62.261 0 93.392 0 0 6.481 0 12.957 0 19.437-37.768 0-75.535 0-113.303 0 0-156.761 0-313.521 0-470.281 37.768 0 75.535 0 113.303 0z"></path>
<path fill="#545454" d="M353.659 20.859c42.983 0 85.966 0 128.947 0 0 156.761 0 313.521 0 470.281-42.983 0-85.966 0-128.947 0 0-6.481 0-12.957 0-19.437 0.158 0 0.315 0 0.474 0 35.555 0 71.111 0 106.666 0 0-45.037 0-90.074 0-135.111-35.634-0.474-71.347-0.632-107.14-0.474 0-6.163 0-12.326 0-18.489 35.872 0 71.743 0 107.615 0 0.158-92.524 0-184.968-0.474-277.334-35.555 0-71.111 0-106.666 0-0.158 0-0.315 0-0.474 0 0-6.479 0-12.958 0-19.437z"></path>
<path fill="#fefffe" d="M44.090 40.77c30.972 0 61.946 0 92.918 0 0 40.928 0 81.857 0 122.785-30.972 0-61.946 0-92.918 0 0-40.928 0-81.857 0-122.785z"></path>
<path fill="#f2f2f2" d="M44.090 40.77c0-0.158 0-0.316 0-0.474 31.131 0 62.261 0 93.392 0 0 41.087 0 82.172 0 123.26-0.158 0-0.315 0-0.474 0 0-40.928 0-81.857 0-122.785-30.972 0-61.946 0-92.918 0z"></path>
<path fill="#fefefe" d="M354.134 40.297c35.555 0 71.111 0 106.666 0 0 41.087 0 82.172 0 123.26-35.555 0-71.111 0-106.666 0 0-41.087 0-82.172 0-123.26z"></path>
<path fill="#fefefe" d="M310.993 44.563c0 0.158 0 0.316 0 0.474 0 33.975 0 67.951 0 101.926-43.615 0-87.23 0-130.845 0 0-34.133 0-68.266 0-102.4 43.615 0 87.23 0 130.845 0z"></path>
<path fill="#575757" d="M310.993 45.037c0.947 33.814 1.263 67.789 0.947 101.926-0.315 0-0.632 0-0.947 0 0-33.975 0-67.951 0-101.926z"></path>
<path fill="#454545" d="M310.993 45.037c0-0.158 0-0.316 0-0.474 0.474 0 0.947 0 1.422 0 0.158 34.213-0 68.347-0.474 102.4 0.315-34.137-0.002-68.112-0.947-101.926z"></path>
<path fill="#ccc" d="M353.659 40.297c0.158 0 0.315 0 0.474 0 0 41.087 0 82.172 0 123.26 35.555 0 71.111 0 106.666 0 0 0.158 0 0.315 0 0.474-35.714 0-71.428 0-107.14 0 0-41.245 0-82.489 0-123.734z"></path>
<path fill="#535353" d="M137.482 164.030c0 6.321 0 12.642 0 18.963-31.131 0-62.261 0-93.392 0 0-6.321 0-12.642 0-18.963 31.131 0 62.261 0 93.392 0z"></path>
<path fill="#535353" d="M353.659 164.030c35.714 0 71.428 0 107.14 0 0 6.321 0 12.642 0 18.963-35.555 0-71.111 0-106.666 0-0.158 0-0.315 0-0.474 0 0-6.321 0-12.642 0-18.963z"></path>
<path fill="#bbb" d="M44.090 40.297c0 0.158 0 0.316 0 0.474 0 40.928 0 81.857 0 122.785 30.972 0 61.946 0 92.918 0 0.158 0 0.315 0 0.474 0 0 0.158 0 0.315 0 0.474-31.131 0-62.261 0-93.392 0 0 6.321 0 12.642 0 18.963 0 44.721 0 89.442 0 134.163 31.131 0 62.261 0 93.392 0 0 0.158 0 0.315 0 0.474-31.131 0-62.261 0-93.392 0 0 6.163 0 12.326 0 18.489 31.131 0 62.261 0 93.392 0 0 0.158 0 0.315 0 0.474-0.158 0-0.315 0-0.474 0-30.972 0-61.946 0-92.918 0 0 44.879 0 89.758 0 134.637 0 0.158 0 0.315 0 0.474-0.632-143.803-0.632-287.605 0-431.408z"></path>
<path fill="#fefefe" d="M44.090 182.993c31.131 0 62.261 0 93.392 0 0 44.721 0 89.442 0 134.163-31.131 0-62.261 0-93.392 0 0-44.721 0-89.442 0-134.163z"></path>
<path fill="#fefefe" d="M310.993 182.993c0 42.035 0 84.069 0 126.103-43.615 0-87.23 0-130.845 0 0-42.034 0-84.069 0-126.103 43.615 0 87.23 0 130.845 0z"></path>
<path fill="#535353" d="M310.993 182.993c0.474 0 0.947 0 1.422 0 0 42.035 0 84.069 0 126.103-0.474 0-0.947 0-1.422 0 0-42.034 0-84.069 0-126.103z"></path>
<path fill="#b9b9b9" d="M460.8 40.297c0.474 92.365 0.632 184.81 0.474 277.334-35.872 0-71.743 0-107.615 0 0-44.879 0-89.758 0-134.637 0.158 0 0.315 0 0.474 0 0 44.721 0 89.442 0 134.163 35.555 0 71.111 0 106.666 0 0-44.721 0-89.442 0-134.163 0-6.321 0-12.642 0-18.963 0-0.158 0-0.315 0-0.474 0-41.087 0-82.172 0-123.26z"></path>
<path fill="#fefffe" d="M354.134 182.993c35.555 0 71.111 0 106.666 0 0 44.721 0 89.442 0 134.163-35.555 0-71.111 0-106.666 0 0-44.721 0-89.442 0-134.163z"></path>
<path fill="#535353" d="M137.482 317.63c0 6.163 0 12.326 0 18.489-31.131 0-62.261 0-93.392 0 0-6.163 0-12.326 0-18.489 31.131 0 62.261 0 93.392 0z"></path>
<path fill="#fefffe" d="M137.007 336.592c0 44.879 0 89.758 0 134.637-30.972 0-61.946 0-92.918 0 0-44.879 0-89.758 0-134.637 30.972 0 61.946 0 92.918 0z"></path>
<path fill="#b4b4b4" d="M353.659 336.118c35.793-0.158 71.507 0 107.14 0.474-35.555 0-71.111 0-106.666 0 0 45.037 0 90.074 0 135.111-0.158 0-0.315 0-0.474 0 0-45.195 0-90.39 0-135.585z"></path>
<path fill="#fefefe" d="M460.8 336.592c0 45.037 0 90.074 0 135.111-35.555 0-71.111 0-106.666 0 0-45.037 0-90.074 0-135.111 35.555 0 71.111 0 106.666 0z"></path>
<path fill="#fefefe" d="M310.993 344.652c0 0.158 0 0.315 0 0.474 0 40.613 0 81.225 0 121.837 0 0.158 0 0.315 0 0.474-43.615 0-87.23 0-130.845 0 0-40.928 0-81.857 0-122.785 43.615 0 87.23 0 130.845 0z"></path>
<path fill="#575757" d="M310.993 345.126c0.632 20.146 0.947 40.452 0.947 60.918s-0.315 40.772-0.947 60.918c0-40.613 0-81.225 0-121.837z"></path>
<path fill="#454545" d="M310.993 345.126c0-0.158 0-0.315 0-0.474 0.474 0 0.947 0 1.422 0 0 40.928 0 81.857 0 122.785-0.474 0-0.947 0-1.422 0 0-0.158 0-0.315 0-0.474 0.632-20.146 0.947-40.452 0.947-60.918s-0.315-40.772-0.947-60.918z"></path>
<path fill="#f3f3f3" d="M137.007 336.592c0.158 0 0.315 0 0.474 0 0 45.037 0 90.074 0 135.111-31.131 0-62.261 0-93.392 0 0-0.158 0-0.315 0-0.474 30.972 0 61.946 0 92.919 0 0-44.879 0-89.758 0-134.637z"></path>
</svg>
